<?xml version="1.0" ?><!DOCTYPE svg  PUBLIC '-//W3C//DTD SVG 1.1//EN'  'http://www.w3.org/Graphics/SVG/1.1/DTD/svg11.dtd'><svg enable-background="new 0 0 128 128" id="Слой_1" version="1.1" viewBox="0 0 128 128" xml:space="preserve" xmlns="http://www.w3.org/2000/svg" xmlns:xlink="http://www.w3.org/1999/xlink"><path d="M64.1,85.3c-19,0-34.5-15.5-34.5-34.5s15.5-34.5,34.5-34.5s34.5,15.5,34.5,34.5S83.1,85.3,64.1,85.3z" fill="#FFF6E2"/><g><g><path d="M64.1,5.4C39,5.4,18.6,25.8,18.6,50.9c0,0.8,0,1.6,0.1,2.3c1.3,25.5,22,55.9,42.4,68.6    c0.9,0.6,2,0.8,3,0.8s2-0.2,2.9-0.8c20.4-12.5,41.1-43,42.4-68.6c0-0.8,0-1.5,0-2.3C109.6,25.8,89.2,5.4,64.1,5.4z M64.1,85.3    c-19,0-34.5-15.5-34.5-34.5s15.5-34.5,34.5-34.5s34.5,15.5,34.5,34.5S83.1,85.3,64.1,85.3z" fill="#5598A2"/><g opacity="0.1"><path d="M28.8,53.2c-0.1-0.7-0.1-1.5-0.1-2.3c0-23.4,17.7-42.7,40.5-45.2c-1.6-0.2-3.3-0.3-5-0.3     C39,5.4,18.6,25.8,18.6,50.9c0,0.8,0,1.6,0.1,2.3c1.3,25.5,22,55.9,42.4,68.6c0.9,0.6,2,0.8,3,0.8s2-0.2,2.9-0.8     c0.7-0.4,1.3-0.8,2-1.3C49.5,107.1,30,77.9,28.8,53.2z" fill="#060808"/></g><g><path d="M64.2,124.1c-1.4,0-2.7-0.4-3.8-1c-19.6-12.2-41.7-42.3-43.1-69.7c-0.1-0.8-0.1-1.7-0.1-2.5     c0-25.9,21.1-47,47-47s47,21.1,47,47v2.3C109.7,80.9,87.6,111,68,123.1C66.8,123.8,65.6,124.1,64.2,124.1z M64.1,6.9     c-24.2,0-44,19.7-44,44c0,0.8,0,1.5,0.1,2.1c0,0.1,0,0.1,0,0.2c1.3,25.6,22.6,55.5,41.7,67.4c0.6,0.4,1.4,0.6,2.3,0.6     c0.8,0,1.5-0.2,2.1-0.6c19.1-11.7,40.4-41.6,41.7-67.4l0-2.3C108.1,26.6,88.4,6.9,64.1,6.9z M64.1,86.8c-19.8,0-36-16.1-36-36     s16.1-36,36-36s36,16.1,36,36S83.9,86.8,64.1,86.8z M64.1,17.9c-18.2,0-33,14.8-33,33s14.8,33,33,33s33-14.8,33-33     S82.3,17.9,64.1,17.9z" fill="#4A374F"/></g></g><g><path d="M41.1,42.7c-0.2,0-0.4,0-0.6-0.1c-0.8-0.3-1.1-1.2-0.8-2c4.2-9.8,13.8-16.2,24.4-16.2    c0.8,0,1.5,0.7,1.5,1.5s-0.7,1.5-1.5,1.5c-9.5,0-17.9,5.6-21.7,14.4C42.2,42.3,41.7,42.7,41.1,42.7z" fill="#4A374F"/></g><g><path d="M39.1,52.4c-0.8,0-1.5-0.7-1.5-1.5l0-0.2c0-0.8,0.7-1.5,1.5-1.5c0,0,0,0,0,0c0.8,0,1.5,0.7,1.5,1.5l0,0.2    C40.6,51.7,39.9,52.4,39.1,52.4z" fill="#4A374F"/></g></g></svg>